<svg width="2998" height="1090" viewBox="0 0 2998 1090" fill="none" xmlns="http://www.w3.org/2000/svg">
<path d="M603.997 676V879.977L873.995 1090L873.997 879.977L603.997 676Z" fill="#819BFF"/>
<path d="M578.002 676V879.977L308.004 1090L308.002 879.977L578.002 676Z" fill="#819BFF"/>
<path d="M578.016 610H308.016L30.0132 340.002L308.016 340L578.016 610Z" fill="#819BFF"/>
<path d="M3.97511e-05 787.445L190.919 643.358L578.414 639.086L381.838 787.445L3.97511e-05 787.445Z" fill="#819BFF"/>
<path d="M1182.41 787.445L991.494 643.358L603.999 639.086L800.575 787.445L1182.41 787.445Z" fill="#819BFF"/>
<path d="M578.513 578.415L387.594 387.497L381.934 0.00138107L578.513 196.578L578.513 578.415Z" fill="#819BFF"/>
<path d="M604.368 610.416H874.368L1152.37 340.418L874.368 340.416L604.368 610.416Z" fill="#819BFF"/>
<path d="M604.927 578.415L795.846 387.497L801.506 0.00138107L604.927 196.578L604.927 578.415Z" fill="#819BFF"/>
<path d="M1694.2 808.4C1645.2 808.4 1602.26 797.667 1565.4 776.2C1529 754.733 1500.3 725.1 1479.3 687.3C1458.76 649.033 1448.5 604.933 1448.5 555C1448.5 505.067 1458.76 461.2 1479.3 423.4C1500.3 385.133 1529 355.267 1565.4 333.8C1602.26 312.333 1645.2 301.6 1694.2 301.6C1742.73 301.6 1785.43 312.333 1822.3 333.8C1859.16 355.267 1887.86 385.133 1908.4 423.4C1928.93 461.2 1939.2 505.067 1939.2 555C1939.2 604.933 1928.93 649.033 1908.4 687.3C1887.86 725.1 1859.16 754.733 1822.3 776.2C1785.43 797.667 1742.73 808.4 1694.2 808.4ZM1694.2 727.9C1740.86 727.9 1777.96 712.5 1805.5 681.7C1833.5 650.9 1847.5 608.667 1847.5 555C1847.5 501.333 1833.5 459.1 1805.5 428.3C1777.96 397.5 1740.86 382.1 1694.2 382.1C1647.53 382.1 1610.2 397.5 1582.2 428.3C1554.2 459.1 1540.2 501.333 1540.2 555C1540.2 608.667 1554.2 650.9 1582.2 681.7C1610.2 712.5 1647.53 727.9 1694.2 727.9ZM2161.81 808.4C2129.14 808.4 2099.98 800.467 2074.31 784.6C2048.64 768.733 2028.34 747.033 2013.41 719.5C1998.48 691.967 1991.01 660.7 1991.01 625.7C1991.01 590.7 1998.48 559.667 2013.41 532.6C2028.34 505.067 2048.64 483.6 2074.31 468.2C2099.98 452.333 2129.14 444.4 2161.81 444.4C2187.94 444.4 2210.81 449.3 2230.41 459.1C2250.01 468.9 2265.88 482.667 2278.01 500.4V296H2367.61V800H2287.81L2278.01 750.3C2266.81 765.7 2251.88 779.233 2233.21 790.9C2215.01 802.567 2191.21 808.4 2161.81 808.4ZM2180.71 730C2209.64 730 2233.21 720.433 2251.41 701.3C2270.08 681.7 2279.41 656.733 2279.41 626.4C2279.41 596.067 2270.08 571.333 2251.41 552.2C2233.21 532.6 2209.64 522.8 2180.71 522.8C2152.24 522.8 2128.68 532.367 2110.01 551.5C2091.34 570.633 2082.01 595.367 2082.01 625.7C2082.01 656.033 2091.34 681 2110.01 700.6C2128.68 720.2 2152.24 730 2180.71 730ZM2493.15 398.9C2476.82 398.9 2463.28 394 2452.55 384.2C2442.28 374.4 2437.15 362.033 2437.15 347.1C2437.15 332.167 2442.28 320.033 2452.55 310.7C2463.28 300.9 2476.82 296 2493.15 296C2509.48 296 2522.78 300.9 2533.05 310.7C2543.78 320.033 2549.15 332.167 2549.15 347.1C2549.15 362.033 2543.78 374.4 2533.05 384.2C2522.78 394 2509.48 398.9 2493.15 398.9ZM2448.35 800V452.8H2537.95V800H2448.35ZM2617.47 800V452.8H2696.57L2703.57 511.6C2714.3 491.067 2729.7 474.733 2749.77 462.6C2770.3 450.467 2794.34 444.4 2821.87 444.4C2864.8 444.4 2898.17 457.933 2921.97 485C2945.77 512.067 2957.67 551.733 2957.67 604V800H2868.07V612.4C2868.07 582.533 2862 559.667 2849.87 543.8C2837.74 527.933 2818.84 520 2793.17 520C2767.97 520 2747.2 528.867 2730.87 546.6C2715 564.333 2707.07 589.067 2707.07 620.8V800H2617.47Z" fill="#F8F8F8"/>
</svg>